<svg id="svg3861" xmlns:rdf="http://www.w3.org/1999/02/22-rdf-syntax-ns#" xmlns="http://www.w3.org/2000/svg" height="58" width="188" version="1.1" xmlns:cc="http://creativecommons.org/ns#" xmlns:dc="http://purl.org/dc/elements/1.1/">
 <g id="layer1" transform="translate(0,-994.36218)">
  <g id="g3056" transform="translate(0,-0.00143)">
   <g id="g3886" fill="#fee924" transform="translate(27.337859,779.66643)">
    <g id="g3864" fill-rule="evenodd" transform="matrix(1.1118413,0,0,1.1118413,-412.13982,-220.32444)" clip-rule="evenodd">
     <path id="path3866" d="m369.53,406.2h2.9c0.959,0,1.874,0.109,2.745,0.326,0.87,0.219,1.625,0.705,2.265,1.459,0.479,0.552,0.835,1.176,1.066,1.873,0.231,0.696,0.332,1.4,0.3,2.111v0.131,0.131c-0.096,1.67-0.675,2.994-1.738,3.974-1.062,0.979-2.544,1.47-4.445,1.47h-6.4v-15.655h3.308v4.18zm0,2.504v6.51h0.468c0.151,0,0.308,0.008,0.467,0.021h0.049,0.048c1.118,0.029,2.149-0.054,3.092-0.25,0.942-0.195,1.478-0.947,1.605-2.254,0.017-0.174,0.028-0.344,0.036-0.512,0.008-0.166,0.004-0.336-0.012-0.512-0.016-0.318-0.06-0.631-0.132-0.936s-0.196-0.596-0.372-0.871c-0.352-0.58-0.799-0.926-1.342-1.033-0.543-0.109-1.158-0.164-1.846-0.164h-2.061z"/>
     <path id="path3868" d="m386.48,406.2c1.789,0,2.824,0.367,3.104,1.1s0.412,1.709,0.396,2.928v0.381,0.382h-3.164v-0.261-0.24c0-1.045-0.092-1.654-0.275-1.828-0.184-0.175-0.851-0.262-2.002-0.262h-0.18-0.18v9.275h-3.308v-11.475h5.609z"/>
     <path id="path3870" d="m404,417.23c0,1.48-0.372,2.605-1.115,3.375s-1.969,1.154-3.679,1.154l-6.544,0.021v-2.33h5.944c0.688-0.014,1.202-0.17,1.546-0.468s0.5-0.737,0.468-1.317h-2.709c-0.927,0-1.77-0.059-2.528-0.174-0.76-0.117-1.49-0.486-2.193-1.111-0.56-0.464-0.991-1.023-1.295-1.676-0.303-0.654-0.487-1.328-0.551-2.025-0.016-0.115-0.028-0.236-0.036-0.359s-0.012-0.242-0.012-0.359v-0.185-0.207c0.048-0.74,0.224-1.462,0.527-2.167,0.304-0.703,0.759-1.324,1.366-1.861,0.591-0.551,1.282-0.91,2.073-1.078,0.791-0.166,1.594-0.258,2.409-0.271h0.132,0.107,6.089v11.038zm-3.38-1.937v-6.641h-0.432c-0.144,0-0.288-0.008-0.432-0.022h-0.335-0.336c-1.039-0.015-1.989,0.12-2.853,0.403-0.862,0.283-1.334,1.062-1.414,2.34,0,0.072-0.004,0.143-0.012,0.207-0.009,0.065-0.013,0.135-0.013,0.207-0.016,0.58,0.057,1.139,0.216,1.676,0.16,0.537,0.52,0.988,1.079,1.352,0.271,0.174,0.563,0.293,0.875,0.358s0.635,0.105,0.971,0.12h0.383,0.384,0.096,0.097,1.726z"/>
     <path id="path3872" d="m408.42,414.82v-3.027l10.115-9.776h4.603v10.124h2.325v2.68h-2.325v2.852h-3.667v-2.852h-11.051zm4.123-2.679h6.928v-6.749l-6.928,6.749z"/>
    </g>
    <path id="path3876" d="m33.059,214.88c-91.039,0.16113-53.364,55.607-48.906,57.812h157.34s12.015-7.8138,11.531-19.219c-0.141-3.304,5.8302-27.75-105.72-33.5,101.3,9.05,95.991,24.94,96.969,28.531h-163.56c-1.08-3.084-18.856-42.531,108.09-28.781-22.5-3.4102-40.853-4.8701-55.75-4.8438zm16.75,36.062,2.5938,0,0,12.531-2.5938,0,0-12.531zm5.5312,0,2.5,0,0,3.3438,2.6875,0,0,1.8438-2.6875,0,0,3.6875c0,0.906,0.2325,1.4438,0.6875,1.5938,0.457,0.151,1.082,0.25,1.875,0.25h0.0625,0.0625v1.8125h-2.2812c-0.973,0-1.7085-0.26525-2.1875-0.78125-0.48-0.518-0.71875-1.1905-0.71875-2.0625v-4.5h-1.75v-1.8438h1.75v-3.3438zm-34,3.3438,2.5938,0,2.0625,6.4375,2.0938-6.4375,2.6562,0,2.125,6.4375,2.0625-6.4375,2.625,0-3.25,9.1875-2.8438,0-2.0625-6.25-2.0312,6.25-2.7188,0-3.3125-9.1875zm17.219,0,5.125,0c0.564,0,1.109,0.0512,1.625,0.15625,0.516,0.104,0.94775,0.355,1.3438,0.75,0.348,0.337,0.58575,0.7455,0.71875,1.1875,0.131,0.441,0.21875,0.87975,0.21875,1.3438v5.75h-6.7188c-0.961,0-1.6918-0.25225-2.2188-0.78125-0.529-0.528-0.797-1.2695-0.75-2.1875,0.096-1.092,0.529-1.8,1.25-2.125,0.719-0.325,1.5665-0.46875,2.5625-0.46875h3.3125c0.037-0.767-0.15575-1.2515-0.59375-1.4375-0.439-0.187-1.0035-0.28125-1.6875-0.28125h-4.1875v-1.9062zm27.5,0,0.0625,0,0.0937,0,3.6562,0,0,1.9062-3.3125,0c-0.695,0-1.2422,0.0833-1.6562,0.28125-0.414,0.197-0.6525,0.70275-0.6875,1.4688h5.6562v1.9375h-5.6562c0.035,0.778,0.24,1.2575,0.625,1.4375,0.383,0.18,0.9435,0.25,1.6875,0.25h3.3438v1.9062h-3.6562-0.0937-0.0625c-0.637-0.012-1.264-0.11325-1.875-0.28125-0.613-0.169-1.1508-0.4725-1.5938-0.9375-0.42-0.465-0.72725-0.9765-0.90625-1.5625-0.18-0.587-0.25-1.1955-0.25-1.8125,0-0.092-0.006-0.18225,0-0.28125s0-0.2195,0-0.3125c0.047-0.5,0.16375-0.98675,0.34375-1.4688,0.18-0.482,0.4505-0.91025,0.8125-1.2812,0.443-0.488,0.98075-0.80075,1.5938-0.96875,0.611-0.169,1.238-0.26925,1.875-0.28125zm5.4062,0,4.2188,0c1.344,0,2.1015,0.288,2.3125,0.875,0.209,0.587,0.3245,1.3678,0.3125,2.3438v0.3125,0.3125h-2.375v-0.21875-0.1875c0-0.837-0.0797-1.3298-0.21875-1.4688-0.137-0.14-0.637-0.1875-1.5-0.1875h-0.125-0.125v7.4062h-2.5v-9.1875zm12.625,0,0.0937,0,0.0937,0,4.5625,0,0,8.8438c0,1.186-0.28675,2.0725-0.84375,2.6875-0.559,0.616-1.466,0.9375-2.75,0.9375h-4.9062v-1.8438h4.4688c0.516-0.012,0.89825-0.137,1.1562-0.375,0.258-0.238,0.36675-0.5975,0.34375-1.0625h-2.0312c-0.695,0-1.3362-0.032-1.9062-0.125s-1.1292-0.40625-1.6562-0.90625c-0.42-0.372-0.73975-0.82075-0.96875-1.3438-0.229-0.523-0.35725-1.067-0.40625-1.625-0.012-0.093-0.0253-0.18225-0.0312-0.28125-0.006-0.099,0-0.18725,0-0.28125v-0.15625-0.15625c0.035-0.593,0.17925-1.187,0.40625-1.75,0.229-0.563,0.543-1.0398,1-1.4688,0.443-0.442,0.9685-0.741,1.5625-0.875s1.2005-0.20675,1.8125-0.21875zm6.9688,0,5.125,0c0.562,0,1.11,0.0512,1.625,0.15625,0.516,0.104,0.981,0.355,1.375,0.75,0.35,0.337,0.58775,0.7455,0.71875,1.1875,0.133,0.441,0.1875,0.87975,0.1875,1.3438v5.75h-6.6875c-0.961,0-1.723-0.25225-2.25-0.78125-0.527-0.528-0.76575-1.2695-0.71875-2.1875,0.098-1.092,0.49975-1.8,1.2188-2.125,0.721-0.325,1.5978-0.46875,2.5938-0.46875h3.3125c0.035-0.767-0.187-1.2515-0.625-1.4375-0.438-0.187-1.0015-0.28125-1.6875-0.28125h-4.1875v-1.9062zm14.312,0,5.375,0,0,1.9062-4.4375,0-0.0937,0-0.0937,0-0.25,0-0.25,0c-0.229,0.012-0.432,0.044-0.625,0.125-0.191,0.081-0.327,0.23575-0.375,0.46875-0.012,0.046,0.006,0.10925,0,0.15625-0.006,0.046-0.0312,0.079-0.0312,0.125-0.012,0.291,0.123,0.509,0.375,0.625s0.5115,0.1875,0.8125,0.1875h2.2812c0.889,0,1.654,0.1675,2.25,0.5625,0.594,0.396,0.9025,1.071,0.9375,2v0.0312,0.0625c0.014,0.732-0.19925,1.4202-0.65625,2.0312-0.455,0.61-1.1298,0.90625-1.9688,0.90625h-6.4062v-1.9062h5.2812,0.0625,0.0937c0.289-0.012,0.5725-0.0665,0.8125-0.1875,0.24-0.123,0.34375-0.35775,0.34375-0.71875,0-0.337-0.10375-0.5655-0.34375-0.6875s-0.5235-0.20675-0.8125-0.21875h-0.0937-0.0625-2.1875c-1.008,0-1.801-0.12225-2.375-0.40625-0.576-0.285-0.88325-0.998-0.90625-2.125-0.012-1.058,0.29325-1.803,0.90625-2.25,0.611-0.447,1.4185-0.6875,2.4375-0.6875zm10.688,0,5.375,0,0,1.9062-4.4375,0-0.0937,0-0.0937,0-0.25,0-0.25,0c-0.229,0.012-0.433,0.044-0.625,0.125s-0.328,0.23575-0.375,0.46875c-0.012,0.046,0.006,0.10925,0,0.15625-0.006,0.046-0.0312,0.079-0.0312,0.125-0.012,0.291,0.123,0.509,0.375,0.625s0.5115,0.1875,0.8125,0.1875h2.2812c0.889,0,1.656,0.1675,2.25,0.5625,0.594,0.396,0.9025,1.071,0.9375,2v0.0312,0.0625c0.012,0.732-0.2305,1.4202-0.6875,2.0312-0.455,0.61-1.0985,0.90625-1.9375,0.90625h-6.4062v-1.9062h5.25,0.0937,0.0937c0.289-0.012,0.5725-0.0665,0.8125-0.1875,0.24-0.123,0.34375-0.35775,0.34375-0.71875,0-0.337-0.10375-0.5655-0.34375-0.6875s-0.5235-0.20675-0.8125-0.21875h-0.0937-0.0937-2.1562c-1.008,0-1.799-0.12225-2.375-0.40625-0.576-0.285-0.88325-0.998-0.90625-2.125-0.014-1.058,0.29525-1.803,0.90625-2.25,0.613-0.447,1.4165-0.6875,2.4375-0.6875zm11.719,0,0.0625,0,0.0937,0,3.6562,0,0,1.9062-3.3125,0c-0.697,0-1.2422,0.0833-1.6562,0.28125-0.414,0.197-0.6525,0.70275-0.6875,1.4688h5.6562v1.9375h-5.6562c0.035,0.778,0.242,1.2575,0.625,1.4375,0.385,0.18,0.9435,0.25,1.6875,0.25h3.3438v1.9062h-3.6562-0.0937-0.0625c-0.637-0.012-1.262-0.11325-1.875-0.28125-0.611-0.169-1.1488-0.4725-1.5938-0.9375-0.42-0.465-0.72525-0.9765-0.90625-1.5625-0.18-0.587-0.25-1.1955-0.25-1.8125,0-0.092-0.006-0.18225,0-0.28125s0-0.2195,0-0.3125c0.049-0.5,0.16175-0.98675,0.34375-1.4688,0.18-0.482,0.4525-0.91025,0.8125-1.2812,0.445-0.488,0.98275-0.80075,1.5938-0.96875,0.613-0.169,1.238-0.26925,1.875-0.28125zm-42.625,1.9688c-0.781-0.012-1.5072,0.0865-2.1562,0.3125s-0.97125,0.854-1.0312,1.875c0,0.059-0.0253,0.10325-0.0312,0.15625-0.006,0.053,0,0.0972,0,0.15625-0.012,0.465,0.0372,0.91375,0.15625,1.3438,0.121,0.43,0.3925,0.80375,0.8125,1.0938,0.203,0.14,0.42225,0.22825,0.65625,0.28125,0.234,0.052,0.46675,0.0817,0.71875,0.0937h0.3125,0.28125,0.0625,0.0625,1.3125v-5.3125h-0.3125c-0.109,0-0.23675,0.012-0.34375,0h-0.25-0.25zm-43.25,3.4688c-0.324,0.012-0.63125,0.0775-0.90625,0.1875-0.275,0.111-0.4255,0.37525-0.4375,0.78125-0.037,0.442,0.0718,0.69425,0.34375,0.78125,0.27,0.087,0.6015,0.1645,0.9375,0.1875h0.0312,0.0312,3.125v-1.9375h-2.9375-0.125-0.0625zm52.5,0c-0.324,0.012-0.598,0.0775-0.875,0.1875-0.275,0.111-0.4255,0.37525-0.4375,0.78125-0.035,0.442,0.0738,0.69425,0.34375,0.78125,0.27,0.087,0.57025,0.1645,0.90625,0.1875h0.0312,0.0312,3.1562v-1.9375h-2.9688-0.0937-0.0937z"/>
   </g>
   <path id="path3026" fill="#393b3b" d="m181.02,1043.6c0.11492-0.2617,0.25325-0.5146,0.30737-0.5622,0.12399-0.1086,0.51608-1.4,0.73542-2.4214,0.26399-1.2294,0.34614-4.3028,0.14791-5.5344-0.64935-4.0346-0.75083-6.0697-0.6554-13.145,0.0519-3.8525,0.14149-7.3549,0.1989-7.783,0.0907-0.676,0.0445-0.8464-0.35163-1.2971-0.45453-0.5171-0.49785-1.012-0.16278-1.8592,0.0898-0.2269,0.0336-0.3027-0.22444-0.3027-0.2442,0-0.47551,0.2685-0.79678,0.9252-0.57787,1.1811-0.56899,1.4903,0.0634,2.2077,0.56217,0.6379,0.64702,1.0404,0.29392,1.3947-0.12523,0.1258-0.36798,0.4431-0.53942,0.7053-0.29741,0.4548-0.29851,0.566-0.0238,2.4213,2.2248,5.8822-2.0324,12.798-0.85583,18.416,0.54567,1.9888,0.92766,4.1196,1.1358,5.9263,0.0806,0.7134,0.15067,1.3166,0.15581,1.3404,0.0469,0.2175,0.40516-0.054,0.57162-0.4323zm-23.219-22.112c1.7837-1.3788,11.625-2.9116,13.318-3.497,0.79384-3.1423,0.30327-5.231,0.2388-7.3483,0.27278-0.094-3.5696-0.2743-8.4541-0.3967-4.0343-0.1007-4.1664-0.1156-4.7015-0.519-3.1198-2.0481-6.0102-4.2659-8.7775-6.1163-0.39595-0.2119-0.47547-0.1692-1.3404,0.7201-0.5057,0.5199-1.1546,1.2113-1.4421,1.5364-0.67043,0.7583-1.9852,2.8462-1.9852,3.1526,0,0.1293,0.21404,0.4335,0.47563,0.6761,3.4666,3.4207,7.266,7.6201,9.3828,11.237,0.79121,0.5685,2.2828,0.8572,3.2861,0.5554zm29.921-11.369c-7.4136-4.2072-15.735-8.9165-22.806-12.943-9.8264-0.9562-17.761-1.7197-27.52-2.5901,7.2066,4.8225,14.625,10.131,20.657,14.297,1.185,0.8165,0.5142,0.7562,10.644,0.9578,6.0269,0,11.42,0.3178,18.074,0.5082,1.2509,0,1.3421-0.022,0.95124-0.2299z"/>
  </g>
 </g>
</svg>
