<svg id="svg3861" xmlns:rdf="http://www.w3.org/1999/02/22-rdf-syntax-ns#" xmlns="http://www.w3.org/2000/svg" height="58" width="196" version="1.1" xmlns:cc="http://creativecommons.org/ns#" xmlns:dc="http://purl.org/dc/elements/1.1/">
 <g id="layer1" transform="translate(0,-994.36218)">
  <g id="g3886" fill="#fee924" transform="translate(27.337859,779.665)">
   <g id="g3864" fill-rule="evenodd" transform="matrix(1.1118413,0,0,1.1118413,-412.13982,-220.32444)" clip-rule="evenodd">
    <path id="path3866" d="m369.53,406.2h2.9c0.959,0,1.874,0.109,2.745,0.326,0.87,0.219,1.625,0.705,2.265,1.459,0.479,0.552,0.835,1.176,1.066,1.873,0.231,0.696,0.332,1.4,0.3,2.111v0.131,0.131c-0.096,1.67-0.675,2.994-1.738,3.974-1.062,0.979-2.544,1.47-4.445,1.47h-6.4v-15.655h3.308v4.18zm0,2.504v6.51h0.468c0.151,0,0.308,0.008,0.467,0.021h0.049,0.048c1.118,0.029,2.149-0.054,3.092-0.25,0.942-0.195,1.478-0.947,1.605-2.254,0.017-0.174,0.028-0.344,0.036-0.512,0.008-0.166,0.004-0.336-0.012-0.512-0.016-0.318-0.06-0.631-0.132-0.936s-0.196-0.596-0.372-0.871c-0.352-0.58-0.799-0.926-1.342-1.033-0.543-0.109-1.158-0.164-1.846-0.164h-2.061z"/>
    <path id="path3868" d="m386.48,406.2c1.789,0,2.824,0.367,3.104,1.1s0.412,1.709,0.396,2.928v0.381,0.382h-3.164v-0.261-0.24c0-1.045-0.092-1.654-0.275-1.828-0.184-0.175-0.851-0.262-2.002-0.262h-0.18-0.18v9.275h-3.308v-11.475h5.609z"/>
    <path id="path3870" d="m404,417.23c0,1.48-0.372,2.605-1.115,3.375s-1.969,1.154-3.679,1.154l-6.544,0.021v-2.33h5.944c0.688-0.014,1.202-0.17,1.546-0.468s0.5-0.737,0.468-1.317h-2.709c-0.927,0-1.77-0.059-2.528-0.174-0.76-0.117-1.49-0.486-2.193-1.111-0.56-0.464-0.991-1.023-1.295-1.676-0.303-0.654-0.487-1.328-0.551-2.025-0.016-0.115-0.028-0.236-0.036-0.359s-0.012-0.242-0.012-0.359v-0.185-0.207c0.048-0.74,0.224-1.462,0.527-2.167,0.304-0.703,0.759-1.324,1.366-1.861,0.591-0.551,1.282-0.91,2.073-1.078,0.791-0.166,1.594-0.258,2.409-0.271h0.132,0.107,6.089v11.038zm-3.38-1.937v-6.641h-0.432c-0.144,0-0.288-0.008-0.432-0.022h-0.335-0.336c-1.039-0.015-1.989,0.12-2.853,0.403-0.862,0.283-1.334,1.062-1.414,2.34,0,0.072-0.004,0.143-0.012,0.207-0.009,0.065-0.013,0.135-0.013,0.207-0.016,0.58,0.057,1.139,0.216,1.676,0.16,0.537,0.52,0.988,1.079,1.352,0.271,0.174,0.563,0.293,0.875,0.358s0.635,0.105,0.971,0.12h0.383,0.384,0.096,0.097,1.726z"/>
    <path id="path3872" d="m408.42,414.82v-3.027l10.115-9.776h4.603v10.124h2.325v2.68h-2.325v2.852h-3.667v-2.852h-11.051zm4.123-2.679h6.928v-6.749l-6.928,6.749z"/>
   </g>
   <path id="path3876" d="m33.059,214.88c-91.039,0.16113-53.364,55.607-48.906,57.812h157.34s12.015-7.8138,11.531-19.219c-0.141-3.304,5.8302-27.75-105.72-33.5,101.3,9.05,95.991,24.94,96.969,28.531h-163.56c-1.08-3.084-18.856-42.531,108.09-28.781-22.5-3.4102-40.853-4.8701-55.75-4.8438zm16.75,36.062,2.5938,0,0,12.531-2.5938,0,0-12.531zm5.5312,0,2.5,0,0,3.3438,2.6875,0,0,1.8438-2.6875,0,0,3.6875c0,0.906,0.2325,1.4438,0.6875,1.5938,0.457,0.151,1.082,0.25,1.875,0.25h0.0625,0.0625v1.8125h-2.2812c-0.973,0-1.7085-0.26525-2.1875-0.78125-0.48-0.518-0.71875-1.1905-0.71875-2.0625v-4.5h-1.75v-1.8438h1.75v-3.3438zm-34,3.3438,2.5938,0,2.0625,6.4375,2.0938-6.4375,2.6562,0,2.125,6.4375,2.0625-6.4375,2.625,0-3.25,9.1875-2.8438,0-2.0625-6.25-2.0312,6.25-2.7188,0-3.3125-9.1875zm17.219,0,5.125,0c0.564,0,1.109,0.0512,1.625,0.15625,0.516,0.104,0.94775,0.355,1.3438,0.75,0.348,0.337,0.58575,0.7455,0.71875,1.1875,0.131,0.441,0.21875,0.87975,0.21875,1.3438v5.75h-6.7188c-0.961,0-1.6918-0.25225-2.2188-0.78125-0.529-0.528-0.797-1.2695-0.75-2.1875,0.096-1.092,0.529-1.8,1.25-2.125,0.719-0.325,1.5665-0.46875,2.5625-0.46875h3.3125c0.037-0.767-0.15575-1.2515-0.59375-1.4375-0.439-0.187-1.0035-0.28125-1.6875-0.28125h-4.1875v-1.9062zm27.5,0,0.0625,0,0.0937,0,3.6562,0,0,1.9062-3.3125,0c-0.695,0-1.2422,0.0833-1.6562,0.28125-0.414,0.197-0.6525,0.70275-0.6875,1.4688h5.6562v1.9375h-5.6562c0.035,0.778,0.24,1.2575,0.625,1.4375,0.383,0.18,0.9435,0.25,1.6875,0.25h3.3438v1.9062h-3.6562-0.0937-0.0625c-0.637-0.012-1.264-0.11325-1.875-0.28125-0.613-0.169-1.1508-0.4725-1.5938-0.9375-0.42-0.465-0.72725-0.9765-0.90625-1.5625-0.18-0.587-0.25-1.1955-0.25-1.8125,0-0.092-0.006-0.18225,0-0.28125s0-0.2195,0-0.3125c0.047-0.5,0.16375-0.98675,0.34375-1.4688,0.18-0.482,0.4505-0.91025,0.8125-1.2812,0.443-0.488,0.98075-0.80075,1.5938-0.96875,0.611-0.169,1.238-0.26925,1.875-0.28125zm5.4062,0,4.2188,0c1.344,0,2.1015,0.288,2.3125,0.875,0.209,0.587,0.3245,1.3678,0.3125,2.3438v0.3125,0.3125h-2.375v-0.21875-0.1875c0-0.837-0.0797-1.3298-0.21875-1.4688-0.137-0.14-0.637-0.1875-1.5-0.1875h-0.125-0.125v7.4062h-2.5v-9.1875zm12.625,0,0.0937,0,0.0937,0,4.5625,0,0,8.8438c0,1.186-0.28675,2.0725-0.84375,2.6875-0.559,0.616-1.466,0.9375-2.75,0.9375h-4.9062v-1.8438h4.4688c0.516-0.012,0.89825-0.137,1.1562-0.375,0.258-0.238,0.36675-0.5975,0.34375-1.0625h-2.0312c-0.695,0-1.3362-0.032-1.9062-0.125s-1.1292-0.40625-1.6562-0.90625c-0.42-0.372-0.73975-0.82075-0.96875-1.3438-0.229-0.523-0.35725-1.067-0.40625-1.625-0.012-0.093-0.0253-0.18225-0.0312-0.28125-0.006-0.099,0-0.18725,0-0.28125v-0.15625-0.15625c0.035-0.593,0.17925-1.187,0.40625-1.75,0.229-0.563,0.543-1.0398,1-1.4688,0.443-0.442,0.9685-0.741,1.5625-0.875s1.2005-0.20675,1.8125-0.21875zm6.9688,0,5.125,0c0.562,0,1.11,0.0512,1.625,0.15625,0.516,0.104,0.981,0.355,1.375,0.75,0.35,0.337,0.58775,0.7455,0.71875,1.1875,0.133,0.441,0.1875,0.87975,0.1875,1.3438v5.75h-6.6875c-0.961,0-1.723-0.25225-2.25-0.78125-0.527-0.528-0.76575-1.2695-0.71875-2.1875,0.098-1.092,0.49975-1.8,1.2188-2.125,0.721-0.325,1.5978-0.46875,2.5938-0.46875h3.3125c0.035-0.767-0.187-1.2515-0.625-1.4375-0.438-0.187-1.0015-0.28125-1.6875-0.28125h-4.1875v-1.9062zm14.312,0,5.375,0,0,1.9062-4.4375,0-0.0937,0-0.0937,0-0.25,0-0.25,0c-0.229,0.012-0.432,0.044-0.625,0.125-0.191,0.081-0.327,0.23575-0.375,0.46875-0.012,0.046,0.006,0.10925,0,0.15625-0.006,0.046-0.0312,0.079-0.0312,0.125-0.012,0.291,0.123,0.509,0.375,0.625s0.5115,0.1875,0.8125,0.1875h2.2812c0.889,0,1.654,0.1675,2.25,0.5625,0.594,0.396,0.9025,1.071,0.9375,2v0.0312,0.0625c0.014,0.732-0.19925,1.4202-0.65625,2.0312-0.455,0.61-1.1298,0.90625-1.9688,0.90625h-6.4062v-1.9062h5.2812,0.0625,0.0937c0.289-0.012,0.5725-0.0665,0.8125-0.1875,0.24-0.123,0.34375-0.35775,0.34375-0.71875,0-0.337-0.10375-0.5655-0.34375-0.6875s-0.5235-0.20675-0.8125-0.21875h-0.0937-0.0625-2.1875c-1.008,0-1.801-0.12225-2.375-0.40625-0.576-0.285-0.88325-0.998-0.90625-2.125-0.012-1.058,0.29325-1.803,0.90625-2.25,0.611-0.447,1.4185-0.6875,2.4375-0.6875zm10.688,0,5.375,0,0,1.9062-4.4375,0-0.0937,0-0.0937,0-0.25,0-0.25,0c-0.229,0.012-0.433,0.044-0.625,0.125s-0.328,0.23575-0.375,0.46875c-0.012,0.046,0.006,0.10925,0,0.15625-0.006,0.046-0.0312,0.079-0.0312,0.125-0.012,0.291,0.123,0.509,0.375,0.625s0.5115,0.1875,0.8125,0.1875h2.2812c0.889,0,1.656,0.1675,2.25,0.5625,0.594,0.396,0.9025,1.071,0.9375,2v0.0312,0.0625c0.012,0.732-0.2305,1.4202-0.6875,2.0312-0.455,0.61-1.0985,0.90625-1.9375,0.90625h-6.4062v-1.9062h5.25,0.0937,0.0937c0.289-0.012,0.5725-0.0665,0.8125-0.1875,0.24-0.123,0.34375-0.35775,0.34375-0.71875,0-0.337-0.10375-0.5655-0.34375-0.6875s-0.5235-0.20675-0.8125-0.21875h-0.0937-0.0937-2.1562c-1.008,0-1.799-0.12225-2.375-0.40625-0.576-0.285-0.88325-0.998-0.90625-2.125-0.014-1.058,0.29525-1.803,0.90625-2.25,0.613-0.447,1.4165-0.6875,2.4375-0.6875zm11.719,0,0.0625,0,0.0937,0,3.6562,0,0,1.9062-3.3125,0c-0.697,0-1.2422,0.0833-1.6562,0.28125-0.414,0.197-0.6525,0.70275-0.6875,1.4688h5.6562v1.9375h-5.6562c0.035,0.778,0.242,1.2575,0.625,1.4375,0.385,0.18,0.9435,0.25,1.6875,0.25h3.3438v1.9062h-3.6562-0.0937-0.0625c-0.637-0.012-1.262-0.11325-1.875-0.28125-0.611-0.169-1.1488-0.4725-1.5938-0.9375-0.42-0.465-0.72525-0.9765-0.90625-1.5625-0.18-0.587-0.25-1.1955-0.25-1.8125,0-0.092-0.006-0.18225,0-0.28125s0-0.2195,0-0.3125c0.049-0.5,0.16175-0.98675,0.34375-1.4688,0.18-0.482,0.4525-0.91025,0.8125-1.2812,0.445-0.488,0.98275-0.80075,1.5938-0.96875,0.613-0.169,1.238-0.26925,1.875-0.28125zm-42.625,1.9688c-0.781-0.012-1.5072,0.0865-2.1562,0.3125s-0.97125,0.854-1.0312,1.875c0,0.059-0.0253,0.10325-0.0312,0.15625-0.006,0.053,0,0.0972,0,0.15625-0.012,0.465,0.0372,0.91375,0.15625,1.3438,0.121,0.43,0.3925,0.80375,0.8125,1.0938,0.203,0.14,0.42225,0.22825,0.65625,0.28125,0.234,0.052,0.46675,0.0817,0.71875,0.0937h0.3125,0.28125,0.0625,0.0625,1.3125v-5.3125h-0.3125c-0.109,0-0.23675,0.012-0.34375,0h-0.25-0.25zm-43.25,3.4688c-0.324,0.012-0.63125,0.0775-0.90625,0.1875-0.275,0.111-0.4255,0.37525-0.4375,0.78125-0.037,0.442,0.0718,0.69425,0.34375,0.78125,0.27,0.087,0.6015,0.1645,0.9375,0.1875h0.0312,0.0312,3.125v-1.9375h-2.9375-0.125-0.0625zm52.5,0c-0.324,0.012-0.598,0.0775-0.875,0.1875-0.275,0.111-0.4255,0.37525-0.4375,0.78125-0.035,0.442,0.0738,0.69425,0.34375,0.78125,0.27,0.087,0.57025,0.1645,0.90625,0.1875h0.0312,0.0312,3.1562v-1.9375h-2.9688-0.0937-0.0937z"/>
  </g>
  <path id="path3026" d="m187.62,1051c0.13231-0.3014,0.29158-0.5925,0.3539-0.6473,0.14276-0.1251,0.5942-1.612,0.84674-2.788,0.30396-1.4155,0.39855-4.9541,0.1703-6.3721-0.74764-4.6455-0.86448-6.9886-0.75461-15.134,0.0598-4.4358,0.16291-8.4684,0.22901-8.9612,0.10444-0.7784,0.0513-0.9746-0.40486-1.4935-0.52333-0.5954-0.57321-1.1652-0.18742-2.1407,0.10339-0.2612,0.0387-0.3485-0.25841-0.3485-0.28117,0-0.54749,0.3092-0.9174,1.0653-0.66535,1.3599-0.65512,1.7159,0.073,2.5419,0.64727,0.7344,0.74497,1.1979,0.33841,1.6058-0.14419,0.1449-0.42368,0.5102-0.62107,0.8121-0.34244,0.5236-0.3437,0.6516-0.0274,2.7878,2.5616,6.7727-2.3401,14.735-0.98539,21.204,0.62827,2.2899,1.0681,4.7433,1.3077,6.8234,0.0928,0.8214,0.17348,1.5159,0.17941,1.5433,0.054,0.2504,0.46649-0.062,0.65814-0.4977zm-26.734-25.46c2.0538-1.5876,13.384-3.3525,15.333-4.0265,0.91402-3.6179,0.34918-6.0228,0.27495-8.4606,0.31408-0.1082-4.11-0.3158-9.7339-0.4567-4.645-0.116-4.7971-0.1331-5.4132-0.5976-3.5921-2.3582-6.92-4.9117-10.106-7.0422-0.45588-0.244-0.54744-0.1948-1.5433,0.8291-0.58226,0.5986-1.3294,1.3946-1.6604,1.769-0.77193,0.8731-2.2858,3.277-2.2858,3.6298,0,0.1489,0.24644,0.4992,0.54763,0.7785,3.9914,3.9385,8.366,8.7736,10.803,12.938,0.91098,0.6546,2.6284,0.9871,3.7836,0.6396zm34.451-13.09c-8.5358-4.8441-18.117-10.266-26.259-14.903-11.314-1.101-20.45-1.98-31.686-2.9821,8.2975,5.5526,16.839,11.665,23.784,16.462,1.3644,0.9402,0.59204,0.8707,12.255,1.1028,6.9393,0,13.149,0.366,20.81,0.5851,1.4402,0,1.5453-0.025,1.0952-0.2646z" fill="#3b3b3b"/>
 </g>
</svg>
